<svg xmlns="http://www.w3.org/2000/svg" viewBox="0 0 64 64" role="img" aria-label="CONNECT">
  <rect width="64" height="64" rx="14" fill="#050505" />
  <path d="M17.5 17h20.5l-3 5H18.6c-4.5 0-8.1 3.7-8.1 8.2c0 4.6 3.6 8.3 8.1 8.3H35l-3 5H17.5C10 43.5 4 37.5 4 30s6-13 13.5-13Z" fill="#fff"/>
  <path d="M35.2 36l8.2-13.1h4.8L57 36h-5l-5.5-9.1L40.8 36h-5.6Z" fill="#fff"/>
  <path d="M17.1 27.8L43 18" stroke="#fff" stroke-width="2.2" stroke-linecap="round"/>
  <path d="M34 23.5l7.3 5.1" stroke="#fff" stroke-width="2.2" stroke-linecap="round"/>
  <circle cx="17" cy="27.7" r="2.9" fill="#fff"/>
  <circle cx="34" cy="23.5" r="2.9" fill="#fff"/>
  <circle cx="43.3" cy="18.2" r="2.9" fill="#fff"/>
</svg>
